<svg width="18" height="20" viewBox="0 0 18 20" fill="none" xmlns="http://www.w3.org/2000/svg">
<path d="M16.4995 14.1034V16.5873C16.5004 16.8179 16.4574 17.0462 16.3732 17.2575C16.2891 17.4687 16.1657 17.6584 16.0109 17.8143C15.8561 17.9702 15.6734 18.0888 15.4744 18.1627C15.2754 18.2366 15.0646 18.264 14.8554 18.2433C12.5346 17.9664 10.3053 17.0958 8.34668 15.7014C6.52441 14.4302 4.97945 12.7341 3.8215 10.7336C2.5469 8.57357 1.75368 6.11432 1.50612 3.55506C1.48727 3.3261 1.51206 3.09534 1.5789 2.87747C1.64574 2.6596 1.75317 2.45939 1.89436 2.2896C2.03554 2.11981 2.20738 1.98416 2.39893 1.89127C2.59049 1.79838 2.79756 1.7503 3.00697 1.75008H5.26956C5.63558 1.74613 5.99041 1.88842 6.26793 2.15043C6.54546 2.41245 6.72672 2.77631 6.77795 3.17419C6.87345 3.9691 7.05055 4.7496 7.30589 5.50079C7.40736 5.79714 7.42932 6.11922 7.36917 6.42885C7.30902 6.73848 7.16928 7.0227 6.9665 7.24781L6.00867 8.29934C7.08231 10.3722 8.64568 12.0885 10.5338 13.2672L11.4917 12.2156C11.6967 11.993 11.9556 11.8396 12.2377 11.7736C12.5197 11.7075 12.8131 11.7317 13.083 11.8431C13.7673 12.1234 14.4782 12.3178 15.2023 12.4226C15.5687 12.4794 15.9033 12.682 16.1424 12.9919C16.3816 13.3018 16.5087 13.6974 16.4995 14.1034Z" fill="#1554FF" stroke="white" stroke-width="2" stroke-linecap="round" stroke-linejoin="round"/>
</svg>
